<svg width="1304" height="526" viewBox="0 0 1304 526" fill="none" xmlns="http://www.w3.org/2000/svg">
<rect width="1304" height="526" fill="white"/>
<g clip-path="url(#clip0_1703_314)">
<rect width="1304" height="398" fill="#F55A3B"/>
<rect width="1304" height="398" fill="#F55A3B"/>
</g>
<g clip-path="url(#clip1_1703_314)">
<rect width="1304" height="100" transform="translate(0 398)" fill="#E0E0E2"/>
<rect y="398" width="1304" height="100" fill="#E0E0E2"/>
</g>
<g clip-path="url(#clip2_1703_314)">
<rect width="1304" height="28" transform="translate(0 498)" fill="#D4D5D7"/>
<rect y="498" width="1304" height="28" fill="#D4D5D7"/>
</g>
<g filter="url(#filter0_d_1703_314)">
<path d="M733 106C733 94.9543 741.954 86 753 86H876C887.046 86 896 94.9543 896 106V417C896 428.046 887.046 437 876 437H753C741.954 437 733 428.046 733 417V106Z" fill="#F5F5F5"/>
<path d="M733 106C733 94.9543 741.954 86 753 86H876C887.046 86 896 94.9543 896 106V417C896 428.046 887.046 437 876 437H753C741.954 437 733 428.046 733 417V106Z" stroke="black" stroke-width="9"/>
</g>
<g filter="url(#filter1_d_1703_314)">
<path d="M1059 106C1059 94.9543 1067.95 86 1079 86H1202C1213.05 86 1222 94.9543 1222 106V417C1222 428.046 1213.05 437 1202 437H1079C1067.95 437 1059 428.046 1059 417V106Z" fill="#F5F5F5"/>
<path d="M1059 106C1059 94.9543 1067.95 86 1079 86H1202C1213.05 86 1222 94.9543 1222 106V417C1222 428.046 1213.05 437 1202 437H1079C1067.95 437 1059 428.046 1059 417V106Z" stroke="black" stroke-width="9"/>
</g>
<g filter="url(#filter2_d_1703_314)">
<path d="M407 106C407 94.9543 415.954 86 427 86H550C561.046 86 570 94.9543 570 106V417C570 428.046 561.046 437 550 437H427C415.954 437 407 428.046 407 417V106Z" fill="#F5F5F5"/>
<path d="M407 106C407 94.9543 415.954 86 427 86H550C561.046 86 570 94.9543 570 106V417C570 428.046 561.046 437 550 437H427C415.954 437 407 428.046 407 417V106Z" stroke="black" stroke-width="9"/>
</g>
<path d="M482.71 276V273.699L491.352 264.239C492.366 263.131 493.202 262.168 493.858 261.349C494.514 260.523 495 259.747 495.315 259.023C495.639 258.29 495.801 257.523 495.801 256.722C495.801 255.801 495.58 255.004 495.136 254.331C494.702 253.658 494.105 253.138 493.347 252.771C492.588 252.405 491.736 252.222 490.79 252.222C489.784 252.222 488.906 252.43 488.156 252.848C487.415 253.257 486.839 253.832 486.43 254.574C486.03 255.315 485.83 256.185 485.83 257.182H482.812C482.812 255.648 483.166 254.301 483.874 253.142C484.581 251.983 485.544 251.08 486.763 250.432C487.99 249.784 489.366 249.46 490.892 249.46C492.426 249.46 493.786 249.784 494.97 250.432C496.155 251.08 497.084 251.953 497.757 253.053C498.43 254.152 498.767 255.375 498.767 256.722C498.767 257.685 498.592 258.626 498.243 259.547C497.902 260.459 497.305 261.477 496.453 262.602C495.609 263.719 494.438 265.082 492.938 266.693L487.057 272.983V273.188H499.227V276H482.71Z" fill="black"/>
<path d="M815.557 276.358C813.869 276.358 812.365 276.068 811.044 275.489C809.732 274.909 808.688 274.104 807.912 273.072C807.145 272.033 806.727 270.827 806.659 269.455H809.881C809.949 270.298 810.239 271.027 810.75 271.641C811.261 272.246 811.93 272.714 812.757 273.047C813.584 273.379 814.5 273.545 815.506 273.545C816.631 273.545 817.628 273.349 818.497 272.957C819.366 272.565 820.048 272.02 820.543 271.321C821.037 270.622 821.284 269.812 821.284 268.892C821.284 267.929 821.045 267.081 820.568 266.348C820.091 265.607 819.392 265.027 818.472 264.609C817.551 264.192 816.426 263.983 815.097 263.983H813V261.17H815.097C816.136 261.17 817.048 260.983 817.832 260.608C818.625 260.233 819.243 259.705 819.686 259.023C820.138 258.341 820.364 257.54 820.364 256.619C820.364 255.733 820.168 254.962 819.776 254.305C819.384 253.649 818.83 253.138 818.114 252.771C817.406 252.405 816.571 252.222 815.608 252.222C814.705 252.222 813.852 252.388 813.051 252.72C812.259 253.044 811.611 253.517 811.108 254.139C810.605 254.753 810.332 255.494 810.29 256.364H807.222C807.273 254.991 807.686 253.79 808.462 252.759C809.237 251.719 810.251 250.909 811.504 250.33C812.766 249.75 814.151 249.46 815.659 249.46C817.278 249.46 818.668 249.788 819.827 250.445C820.986 251.092 821.876 251.949 822.499 253.014C823.121 254.08 823.432 255.23 823.432 256.466C823.432 257.94 823.044 259.197 822.268 260.237C821.501 261.277 820.457 261.997 819.136 262.398V262.602C820.79 262.875 822.081 263.578 823.01 264.712C823.939 265.837 824.403 267.23 824.403 268.892C824.403 270.315 824.016 271.594 823.24 272.727C822.473 273.852 821.425 274.739 820.095 275.386C818.766 276.034 817.253 276.358 815.557 276.358Z" fill="black"/>
<path d="M1131.1 270.631V268.023L1142.6 249.818H1144.49V253.858H1143.22L1134.52 267.614V267.818H1150.02V270.631H1131.1ZM1143.42 276V269.838V268.624V249.818H1146.44V276H1143.42Z" fill="black"/>
<g filter="url(#filter3_d_1703_314)">
<path d="M81 106C81 94.9543 89.9543 86 101 86H224C235.046 86 244 94.9543 244 106V417C244 428.046 235.046 437 224 437H101C89.9543 437 81 428.046 81 417V106Z" fill="#F5F5F5"/>
<path d="M81 106C81 94.9543 89.9543 86 101 86H224C235.046 86 244 94.9543 244 106V417C244 428.046 235.046 437 224 437H101C89.9543 437 81 428.046 81 417V106Z" stroke="black" stroke-width="9"/>
</g>
<path d="M165.915 249.818V276H162.744V253.142H162.591L156.199 257.386V254.165L162.744 249.818H165.915Z" fill="black"/>
<defs>
<filter id="filter0_d_1703_314" x="728.5" y="81.5" width="188" height="376" filterUnits="userSpaceOnUse" color-interpolation-filters="sRGB">
<feFlood flood-opacity="0" result="BackgroundImageFix"/>
<feColorMatrix in="SourceAlpha" type="matrix" values="0 0 0 0 0 0 0 0 0 0 0 0 0 0 0 0 0 0 127 0" result="hardAlpha"/>
<feOffset dx="15" dy="15"/>
<feGaussianBlur stdDeviation="0.5"/>
<feComposite in2="hardAlpha" operator="out"/>
<feColorMatrix type="matrix" values="0 0 0 0 0 0 0 0 0 0 0 0 0 0 0 0 0 0 1 0"/>
<feBlend mode="normal" in2="BackgroundImageFix" result="effect1_dropShadow_1703_314"/>
<feBlend mode="normal" in="SourceGraphic" in2="effect1_dropShadow_1703_314" result="shape"/>
</filter>
<filter id="filter1_d_1703_314" x="1054.5" y="81.5" width="188" height="376" filterUnits="userSpaceOnUse" color-interpolation-filters="sRGB">
<feFlood flood-opacity="0" result="BackgroundImageFix"/>
<feColorMatrix in="SourceAlpha" type="matrix" values="0 0 0 0 0 0 0 0 0 0 0 0 0 0 0 0 0 0 127 0" result="hardAlpha"/>
<feOffset dx="15" dy="15"/>
<feGaussianBlur stdDeviation="0.5"/>
<feComposite in2="hardAlpha" operator="out"/>
<feColorMatrix type="matrix" values="0 0 0 0 0 0 0 0 0 0 0 0 0 0 0 0 0 0 1 0"/>
<feBlend mode="normal" in2="BackgroundImageFix" result="effect1_dropShadow_1703_314"/>
<feBlend mode="normal" in="SourceGraphic" in2="effect1_dropShadow_1703_314" result="shape"/>
</filter>
<filter id="filter2_d_1703_314" x="402.5" y="81.5" width="188" height="376" filterUnits="userSpaceOnUse" color-interpolation-filters="sRGB">
<feFlood flood-opacity="0" result="BackgroundImageFix"/>
<feColorMatrix in="SourceAlpha" type="matrix" values="0 0 0 0 0 0 0 0 0 0 0 0 0 0 0 0 0 0 127 0" result="hardAlpha"/>
<feOffset dx="15" dy="15"/>
<feGaussianBlur stdDeviation="0.5"/>
<feComposite in2="hardAlpha" operator="out"/>
<feColorMatrix type="matrix" values="0 0 0 0 0 0 0 0 0 0 0 0 0 0 0 0 0 0 1 0"/>
<feBlend mode="normal" in2="BackgroundImageFix" result="effect1_dropShadow_1703_314"/>
<feBlend mode="normal" in="SourceGraphic" in2="effect1_dropShadow_1703_314" result="shape"/>
</filter>
<filter id="filter3_d_1703_314" x="76.5" y="81.5" width="188" height="376" filterUnits="userSpaceOnUse" color-interpolation-filters="sRGB">
<feFlood flood-opacity="0" result="BackgroundImageFix"/>
<feColorMatrix in="SourceAlpha" type="matrix" values="0 0 0 0 0 0 0 0 0 0 0 0 0 0 0 0 0 0 127 0" result="hardAlpha"/>
<feOffset dx="15" dy="15"/>
<feGaussianBlur stdDeviation="0.5"/>
<feComposite in2="hardAlpha" operator="out"/>
<feColorMatrix type="matrix" values="0 0 0 0 0 0 0 0 0 0 0 0 0 0 0 0 0 0 1 0"/>
<feBlend mode="normal" in2="BackgroundImageFix" result="effect1_dropShadow_1703_314"/>
<feBlend mode="normal" in="SourceGraphic" in2="effect1_dropShadow_1703_314" result="shape"/>
</filter>
<clipPath id="clip0_1703_314">
<rect width="1304" height="398" fill="white"/>
</clipPath>
<clipPath id="clip1_1703_314">
<rect width="1304" height="100" fill="white" transform="translate(0 398)"/>
</clipPath>
<clipPath id="clip2_1703_314">
<rect width="1304" height="28" fill="white" transform="translate(0 498)"/>
</clipPath>
</defs>
</svg>
